# xmcd
#
# Track frame offsets:
#	180
#	12405
#	22416
#	36406
#	49087
#	60864
#	71470
#	84427
#	95060
#	106841
#	121036
#	133100
#	143684
#	156452
#	167036
#	179194
#	188387
#	202112
#
# Disc length: 2851 seconds
#
# Revision: 0
# Processed by: cddbd v1.4PL0 Copyright (c) Steve Scherf et al.
# Submitted via: dBpowerAMP V4.0
#
DISCID=fe0b2112
DTITLE=Banda San Miguel - 18 Éxitos
DYEAR=2000
DGENRE=Banda
TTITLE0=Quiero volar, volar
TTITLE1=Lo dudo
TTITLE2=Volveré
TTITLE3=Media vida
TTITLE4=El becerro
TTITLE5=Pago al contado
TTITLE6=El eha, eha
TTITLE7=La del piecito sudado
TTITLE8=Dejó de quererme
TTITLE9=Hasta la miel amarga
TTITLE10=El domingo se casa
TTITLE11=La vaquilla colorada
TTITLE12=Daño
TTITLE13=Por feo
TTITLE14=No me hagas menos
TTITLE15=Si te vas no hay lío
TTITLE16=María de la Luz
TTITLE17=Estrenando novio
EXTD=
EXTT0=
EXTT1=
EXTT2=
EXTT3=
EXTT4=
EXTT5=
EXTT6=
EXTT7=
EXTT8=
EXTT9=
EXTT10=
EXTT11=
EXTT12=
EXTT13=
EXTT14=
EXTT15=
EXTT16=
EXTT17=
PLAYORDER=
